<?xml version="1.0" encoding="utf-8"?>
<!-- Generator: Adobe Illustrator 24.2.3, SVG Export Plug-In . SVG Version: 6.00 Build 0)  -->
<svg version="1.1" id="Слой_1" xmlns="http://www.w3.org/2000/svg" xmlns:xlink="http://www.w3.org/1999/xlink" x="0px" y="0px"
	 viewBox="0 0 612 792" style="enable-background:new 0 0 612 792;" xml:space="preserve">
<style type="text/css">
	.st0{display:none;fill-rule:evenodd;clip-rule:evenodd;}
	.st1{fill-rule:evenodd;clip-rule:evenodd;}
</style>
<g>
	<path class="st0" d="M285.07,412.79c-2.07,0-3.07,1.58-3.07,3.15c0,1.57,0.97,3.08,3.07,3.08c2.1,0,3.05-1.55,3.07-3.09
		C288.16,414.37,287.13,412.79,285.07,412.79L285.07,412.79z M285.07,413.82c1.41,0,1.97,1.13,1.96,2.14
		c-0.02,0.98-0.55,2.04-1.96,2.04c-1.41,0-1.94-1.05-1.96-2.03C283.08,414.95,283.67,413.82,285.07,413.82L285.07,413.82z
		 M297.31,412.9h-1.26l-1.37,4.32l-1.49-4.32h-0.73l-1.45,4.32l-1.41-4.32h-1.26l2.19,5.99h0.96l0.73-1.86l0.62-1.91l0.63,1.89
		l0.74,1.88h0.96L297.31,412.9L297.31,412.9z M298,412.9v5.99h4.2v-1.04h-3.07v-4.94H298L298,412.9z M304.73,412.9v5.99h4.2v-1.04
		h-3.07v-4.94H304.73L304.73,412.9z M312.35,412.79c-2.07,0-3.07,1.58-3.07,3.15c0,1.57,0.97,3.08,3.07,3.08
		c2.1,0,3.05-1.55,3.07-3.09C315.44,414.37,314.41,412.79,312.35,412.79L312.35,412.79z M312.35,413.82c1.41,0,1.97,1.13,1.96,2.14
		c-0.02,0.98-0.55,2.04-1.96,2.04c-1.41,0-1.94-1.05-1.96-2.03C310.36,414.95,310.94,413.82,312.35,413.82L312.35,413.82z
		 M321.39,413.66c-0.61-0.61-1.42-0.91-2.22-0.91c-2.11,0-3.16,1.55-3.16,3.24c0,1.57,0.91,3.05,3.16,3.05
		c1.05,0,1.79-0.4,2.38-1.08v-2.52h-2.56v1.01h1.53v1.06c-0.47,0.38-0.88,0.48-1.35,0.48c-1.49,0-2.06-1.02-2.06-2
		c0-1.23,0.78-2.2,2.06-2.2c0.52,0,1.12,0.21,1.52,0.6L321.39,413.66L321.39,413.66z M325.28,412.79c-2.07,0-3.07,1.58-3.07,3.15
		c0,1.57,0.97,3.08,3.07,3.08c2.1,0,3.05-1.55,3.07-3.09C328.37,414.37,327.34,412.79,325.28,412.79L325.28,412.79z M325.28,413.82
		c1.41,0,1.97,1.13,1.96,2.14c-0.02,0.98-0.55,2.04-1.96,2.04c-1.41,0-1.94-1.05-1.96-2.03
		C323.29,414.95,323.87,413.82,325.28,413.82L325.28,413.82z"/>
	<path class="st0" d="M288.88,420.58h-0.52v0.02l0.89,1.34v0.96h0.44v-0.96l0.93-1.34v-0.02h-0.53l-0.62,0.96L288.88,420.58
		L288.88,420.58z M291.89,420.54c-0.8,0-1.19,0.61-1.19,1.22c0,0.61,0.38,1.2,1.19,1.2c0.82,0,1.18-0.6,1.19-1.2
		C293.09,421.15,292.69,420.54,291.89,420.54L291.89,420.54z M291.89,420.94c0.55,0,0.77,0.44,0.76,0.83
		c-0.01,0.38-0.21,0.79-0.76,0.79c-0.55,0-0.75-0.41-0.76-0.79C291.12,421.38,291.35,420.94,291.89,420.94L291.89,420.94z
		 M295.01,420.59v1.33c0,0.4-0.21,0.64-0.57,0.64c-0.36,0-0.6-0.22-0.6-0.64v-1.33h-0.43v1.33c0,0.7,0.47,1.04,1.03,1.04
		c0.58,0,1-0.35,1-1.04v-1.33H295.01L295.01,420.59z M297.93,422.88l-0.7-0.79c0.44-0.09,0.59-0.41,0.59-0.73
		c0-0.4-0.29-0.77-0.84-0.77c-0.37,0-0.74,0-1.1,0v2.32h0.44v-0.78h0.42l0.68,0.78h0.52V422.88L297.93,422.88z M296.98,420.99
		c0.28,0,0.4,0.19,0.4,0.37s-0.12,0.37-0.4,0.37h-0.67v-0.75H296.98L296.98,420.99z M299.38,422.91h0.44v-1.93h0.74v-0.4
		c-0.67,0-1.24,0-1.91,0v0.4h0.74V422.91L299.38,422.91z M302.66,422.91h0.48l-1.04-2.32h-0.48l-1.04,2.32h0.47l0.2-0.44h1.21
		L302.66,422.91L302.66,422.91z M302.29,422.06h-0.86l0.43-0.99L302.29,422.06L302.29,422.06z M305.23,420.87
		c-0.24-0.24-0.55-0.35-0.86-0.35c-0.82,0-1.23,0.6-1.23,1.26c0,0.61,0.35,1.18,1.23,1.18c0.41,0,0.7-0.16,0.93-0.42v-0.98h-0.99
		v0.39h0.59v0.41c-0.18,0.15-0.34,0.19-0.52,0.19c-0.58,0-0.8-0.39-0.8-0.78c0-0.48,0.3-0.86,0.8-0.86c0.2,0,0.43,0.08,0.59,0.23
		L305.23,420.87L305.23,420.87z M305.65,420.58v2.32h1.63v-0.4h-1.19v-1.92H305.65L305.65,420.58z M308.03,422.91v-2.32h-0.43v2.32
		H308.03L308.03,422.91z M309.97,422.02l-1.14-1.44h-0.35v2.32h0.44v-1.57l1.22,1.57l0,0h0.27v-2.32h-0.44V422.02L309.97,422.02z
		 M312.54,422.47h-1.3v-0.52h1.26v-0.41h-1.26v-0.54h1.3v-0.42h-1.74c0,0.77,0,1.55,0,2.32h1.74V422.47L312.54,422.47z
		 M315.56,422.91v-2.32h-0.43v0.98h-1.14v-0.98h-0.44v2.32h0.44v-0.94h1.14v0.94H315.56L315.56,422.91z M317.7,422.47h-1.3v-0.52
		h1.26v-0.41h-1.26v-0.54h1.3v-0.42h-1.74c0,0.77,0,1.55,0,2.32h1.74V422.47L317.7,422.47z M320.1,422.88l-0.7-0.79
		c0.44-0.09,0.59-0.41,0.59-0.73c0-0.4-0.29-0.77-0.84-0.77c-0.37,0-0.74,0-1.1,0v2.32h0.44v-0.78h0.42l0.68,0.78h0.52V422.88
		L320.1,422.88z M319.15,420.99c0.28,0,0.4,0.19,0.4,0.37s-0.12,0.37-0.4,0.37h-0.67v-0.75H319.15L319.15,420.99z M322.01,422.47
		h-1.3v-0.52h1.26v-0.41h-1.26v-0.54h1.3v-0.42h-1.74c0,0.77,0,1.55,0,2.32h1.74V422.47L322.01,422.47z"/>
	<path class="st1" d="M303.08,391.35c-1.04,1.25-2.6,2.04-4.35,2.04c-3.12,0-5.65-2.53-5.65-5.65c0-1.59,0.65-3.02,1.71-4.05
		c0.79,0.32,1.76,0.78,2.78,1.44c-1,0.45-1.69,1.45-1.69,2.61c0,1.58,1.28,2.86,2.86,2.86c1.25,0,2.31-0.8,2.7-1.92
		C302.03,389.46,302.59,390.35,303.08,391.35L303.08,391.35z M305.18,378.59c0,0-7.98-0.28-10.07-0.98
		c-2.09-0.71-8.38-2.46-8.38-2.46s3.19,4.79,3.22,6.02c0.03,1.23-1.9,7.37,0.31,12.53c2.21,5.16,7.74,6.33,7.74,6.33
		s-5.47-3.87-5.9-9.34c-0.43-5.47,3.07-8.48,3.07-8.48s6.26,1.35,10.01,11.55c3.75-10.2,10.01-11.55,10.01-11.55s3.5,3.01,3.07,8.48
		c-0.43,5.47-5.9,9.34-5.9,9.34s5.53-1.17,7.74-6.33s0.28-11.3,0.31-12.53c0.03-1.23,3.22-6.02,3.22-6.02s-6.3,1.75-8.38,2.46
		C313.17,378.32,305.18,378.59,305.18,378.59L305.18,378.59z M307.28,391.35c1.04,1.25,2.6,2.04,4.35,2.04
		c3.12,0,5.65-2.53,5.65-5.65c0-1.59-0.65-3.02-1.71-4.05c-0.79,0.32-1.76,0.78-2.78,1.44c1,0.45,1.69,1.45,1.69,2.61
		c0,1.58-1.28,2.86-2.86,2.86c-1.25,0-2.31-0.8-2.7-1.92C308.33,389.46,307.77,390.35,307.28,391.35L307.28,391.35z"/>
	<path class="st1" d="M305.18,370c5.35,0,10.19,2.17,13.7,5.67l0.14,0.15c-0.93,0.27-1.85,0.54-2.76,0.83
		c-2.96-2.58-6.84-4.15-11.08-4.15c-4.24,0-8.12,1.57-11.08,4.15c-0.91-0.29-1.83-0.56-2.76-0.83l0.14-0.15
		C294.99,372.17,299.83,370,305.18,370L305.18,370z M321.78,379.37c1.76,2.92,2.78,6.34,2.78,10c0,5.35-2.17,10.19-5.67,13.7
		s-8.35,5.67-13.7,5.67c-5.35,0-10.19-2.17-13.7-5.67c-3.51-3.51-5.67-8.35-5.67-13.7c0-3.66,1.02-7.08,2.78-10
		c0.44,0.81,0.76,1.5,0.76,1.82c0.01,0.42-0.17,1.2-0.24,1.63c-0.16,0.96-0.31,1.91-0.4,2.88c-0.26,1.18-0.4,2.41-0.4,3.67
		c0,4.66,1.89,8.88,4.94,11.93c3.05,3.05,7.27,4.94,11.93,4.94c4.66,0,8.88-1.89,11.93-4.94c3.05-3.05,4.94-7.27,4.94-11.93
		c0-1.26-0.14-2.49-0.4-3.67c-0.09-0.97-0.24-1.92-0.4-2.88c-0.07-0.43-0.25-1.21-0.24-1.63
		C321.02,380.87,321.34,380.18,321.78,379.37L321.78,379.37z"/>
</g>
</svg>
